<?xml version="1.0" encoding="UTF-8"?>
<svg id="_Шар_1" xmlns="http://www.w3.org/2000/svg" version="1.1" viewBox="0 0 2834.65 1319.57">
  <!-- Generator: Adobe Illustrator 30.2.1, SVG Export Plug-In . SVG Version: 2.1.1 Build 1)  -->
  <defs>
    <style>
      .st0, .st1 {
        fill: #323232;
      }

      .st2, .st1 {
        isolation: isolate;
      }

      .st1 {
        font-family: Impact, Impact;
        font-size: 426.81px;
      }

      .st3 {
        fill: #feffff;
      }
    </style>
  </defs>
  <rect class="st3" width="2834.65" height="1319.57"/>
  <g class="st2">
    <g class="st2">
      <path class="st0" d="M510.35,475.51v57.52h-185.27l.05-48.14c54.88-89.75,87.49-145.29,97.85-166.62,10.35-21.33,15.53-37.96,15.53-49.91,0-9.17-1.57-16.01-4.7-20.53-3.13-4.51-7.9-6.77-14.29-6.77s-11.17,2.5-14.3,7.5c-3.13,5-4.7,14.94-4.7,29.8v32.09h-75.44v-12.3c0-18.89.97-33.79,2.92-44.7,1.94-10.91,6.74-21.64,14.38-32.2,7.64-10.56,17.57-18.55,29.8-23.97,12.22-5.42,26.88-8.13,43.97-8.13,33.48,0,58.8,8.3,75.96,24.9,17.16,16.6,25.74,37.62,25.74,63.04,0,19.31-4.83,39.74-14.49,61.27-9.66,21.54-38.1,67.25-85.34,137.13h92.33Z"/>
      <path class="st0" d="M618.3,533.02v-276.55h132.34v47.72h-48.35v228.83h-83.99Z"/>
      <path class="st0" d="M851.29,256.47l-1.46,24.44c7.5-9.88,15.77-17.26,24.8-22.13,9.03-4.87,18.89-7.31,29.59-7.31,13.06,0,24.35,3.51,33.87,10.52,9.51,7.02,15.45,15.11,17.82,24.28,2.36,9.17,3.54,24.73,3.54,46.68v116.5c0,25.15-1.49,43.04-4.48,53.66-2.99,10.63-9.1,19.1-18.34,25.43-9.24,6.32-20.39,9.48-33.45,9.48-10.42,0-20.08-2.44-28.97-7.31-8.89-4.87-17.02-12.11-24.38-21.71v63.41h-84.19v-315.94h85.65ZM875.26,336.92c0-17.09-.63-27.44-1.88-31.05-1.25-3.61-4.72-5.42-10.42-5.42s-9.14,2.08-10.73,6.25c-1.6,4.17-2.4,14.24-2.4,30.22v114.62c0,16.67.83,27.09,2.5,31.26,1.67,4.17,5.28,6.25,10.84,6.25s8.79-1.91,10.11-5.73c1.32-3.82,1.98-13.09,1.98-27.82v-118.58Z"/>
      <path class="st0" d="M1184.74,533.02h-83.78v-101.91h-30.22v101.91h-83.57v-276.55h83.57v99.41h30.22v-99.41h83.78v276.55Z"/>
      <path class="st0" d="M1516.38,189.16l-99.81,350.33h-63.76l100.45-350.33h63.12Z"/>
      <path class="st0" d="M1793.07,195.62v53.98h-104.41v57.31c13.06-15.42,29.87-23.13,50.43-23.13,23.2,0,40.74,6.5,52.62,19.49,11.88,12.99,17.82,37.97,17.82,74.92v48.14c0,23.9-1.15,41.44-3.44,52.62-2.29,11.19-7.19,21.54-14.69,31.05-7.5,9.52-17.96,16.81-31.37,21.88-13.41,5.07-29.77,7.61-49.08,7.61-21.67,0-40.78-3.79-57.31-11.36-16.54-7.57-28.27-18.86-35.22-33.87-6.95-15.01-10.42-38.21-10.42-69.61v-18.34h84.19v21.05c0,21.81.76,37.3,2.29,46.47,1.53,9.17,6.81,13.75,15.84,13.75,4.17,0,7.54-1.32,10.11-3.96,2.57-2.64,3.96-5.49,4.17-8.54.21-3.05.45-16.32.73-39.8v-66.9c0-12.64-1.32-21.26-3.96-25.84-2.64-4.58-7.02-6.88-13.13-6.88-3.89,0-7.16,1.18-9.79,3.54-2.64,2.36-4.34,4.9-5.11,7.61-.77,2.71-1.15,9-1.15,18.86h-83.36l3.54-170.06h180.69Z"/>
      <path class="st0" d="M1913.52,533.02v-276.55h132.34v47.72h-48.35v228.83h-83.99Z"/>
      <path class="st0" d="M2146.52,256.47l-1.46,24.44c7.5-9.88,15.77-17.26,24.8-22.13,9.03-4.87,18.89-7.31,29.59-7.31,13.06,0,24.35,3.51,33.87,10.52,9.52,7.02,15.46,15.11,17.82,24.28,2.36,9.17,3.54,24.73,3.54,46.68v116.5c0,25.15-1.49,43.04-4.48,53.66-2.99,10.63-9.1,19.1-18.34,25.43-9.24,6.32-20.39,9.48-33.45,9.48-10.42,0-20.08-2.44-28.97-7.31-8.89-4.87-17.02-12.11-24.38-21.71v63.41h-84.2v-315.94h85.65ZM2170.48,336.92c0-17.09-.62-27.44-1.88-31.05-1.25-3.61-4.72-5.42-10.42-5.42s-9.14,2.08-10.73,6.25c-1.6,4.17-2.4,14.24-2.4,30.22v114.62c0,16.67.83,27.09,2.5,31.26,1.67,4.17,5.28,6.25,10.84,6.25s8.79-1.91,10.11-5.73c1.32-3.82,1.98-13.09,1.98-27.82v-118.58Z"/>
      <path class="st0" d="M2479.96,533.02h-83.78v-101.91h-30.22v101.91h-83.57v-276.55h83.57v99.41h30.22v-99.41h83.78v276.55Z"/>
    </g>
    <g class="st2">
      <path class="st0" d="M600.9,707.79v43.97h-86.7v-43.97h86.7ZM600.9,768.64v276.55h-86.7v-276.55h86.7Z"/>
      <path class="st0" d="M828.68,1045.19h-83.78v-101.91h-30.22v101.91h-83.57v-276.55h83.57v99.41h30.22v-99.41h83.78v276.55Z"/>
      <path class="st0" d="M1056.67,987.05h29.8v-218.41h84.19v276.55h-311.98v-276.55h83.99v218.41h29.8v-218.41h84.19v218.41Z"/>
      <path class="st0" d="M1275.7,875.76h-78.98v-18.55c0-21.39,2.46-37.89,7.4-49.5,4.93-11.6,14.83-21.85,29.7-30.74,14.86-8.89,34.18-13.34,57.94-13.34,28.48,0,49.94,5.04,64.4,15.11,14.45,10.07,23.13,22.44,26.05,37.1,2.92,14.66,4.38,44.84,4.38,90.55v138.8h-81.9v-24.64c-5.14,9.88-11.77,17.29-19.9,22.23-8.13,4.94-17.82,7.41-29.07,7.41-14.73,0-28.24-4.14-40.53-12.4-12.3-8.26-18.44-26.36-18.44-54.29v-22.72c0-20.7,3.26-34.8,9.79-42.31,6.53-7.5,22.72-16.25,48.56-26.26,27.65-10.84,42.44-18.13,44.39-21.88,1.94-3.75,2.92-11.39,2.92-22.92,0-14.45-1.08-23.86-3.23-28.24-2.16-4.38-5.73-6.56-10.73-6.56-5.7,0-9.24,1.84-10.63,5.52-1.39,3.68-2.08,13.23-2.08,28.66v28.97ZM1302.38,913.69c-13.48,9.87-21.29,18.13-23.45,24.8-2.16,6.67-3.23,16.25-3.23,28.76,0,14.31.94,23.55,2.81,27.72,1.88,4.17,5.59,6.25,11.15,6.25s8.72-1.63,10.32-4.9c1.6-3.26,2.4-11.84,2.4-25.74v-56.89Z"/>
      <path class="st0" d="M1676.88,873.05h-79.4v-31.89c0-11.11-.91-18.65-2.71-22.61-1.81-3.96-5.14-5.94-10-5.94s-8.13,1.74-9.79,5.21c-1.67,3.47-2.5,11.25-2.5,23.34v130.46c0,9.87,1.25,17.26,3.75,22.2,2.5,4.93,6.18,7.4,11.04,7.4,5.7,0,9.55-2.57,11.57-7.71,2.01-5.14,3.02-14.87,3.02-29.18v-32.93h75.02c-.14,22.09-.94,38.66-2.4,49.7-1.46,11.05-6.12,22.37-13.96,33.97-7.85,11.6-18.1,20.36-30.74,26.26-12.64,5.9-28.27,8.86-46.89,8.86-23.76,0-42.59-4.06-56.48-12.19-13.89-8.13-23.72-19.52-29.49-34.18-5.77-14.66-8.65-35.46-8.65-62.42v-78.57c0-23.48,2.36-41.19,7.09-53.14,4.72-11.95,14.8-22.61,30.22-31.99,15.42-9.38,34.18-14.07,56.27-14.07s40.71,4.66,56.27,13.96c15.56,9.31,25.91,21.05,31.05,35.22,5.14,14.17,7.71,34.25,7.71,60.23Z"/>
      <path class="st0" d="M1878.15,768.64l-24.06,200.07c-3.81,31.67-6.99,53.28-9.56,64.81-2.57,11.53-6.84,21.05-12.82,28.55-5.97,7.5-14.27,13.03-24.9,16.57-10.63,3.54-27.61,5.31-50.95,5.31h-51.05v-44.18c13.08,0,21.5-.66,25.26-1.98,3.76-1.32,5.64-4.27,5.64-8.86,0-2.22-1.74-11.88-5.22-28.97l-46.1-231.33h76.43l27.67,186.73,13.49-186.73h76.17Z"/>
      <path class="st0" d="M2154.75,1045.19h-72.11v-190.69l-35.01,190.69h-46.06l-36.26-190.69v190.69h-72.11v-276.55h104.36l26.94,152.97,24.44-152.97h105.82v276.55Z"/>
      <path class="st0" d="M2259.99,875.76h-78.98v-18.55c0-21.39,2.46-37.89,7.4-49.5,4.93-11.6,14.83-21.85,29.7-30.74,14.87-8.89,34.18-13.34,57.94-13.34,28.48,0,49.95,5.04,64.4,15.11,14.45,10.07,23.13,22.44,26.05,37.1,2.92,14.66,4.38,44.84,4.38,90.55v138.8h-81.9v-24.64c-5.14,9.88-11.77,17.29-19.9,22.23-8.13,4.94-17.82,7.41-29.07,7.41-14.73,0-28.24-4.14-40.53-12.4s-18.44-26.36-18.44-54.29v-22.72c0-20.7,3.26-34.8,9.79-42.31,6.53-7.5,22.72-16.25,48.56-26.26,27.65-10.84,42.44-18.13,44.39-21.88,1.94-3.75,2.92-11.39,2.92-22.92,0-14.45-1.08-23.86-3.23-28.24-2.16-4.38-5.73-6.56-10.73-6.56-5.7,0-9.24,1.84-10.63,5.52-1.39,3.68-2.08,13.23-2.08,28.66v28.97ZM2286.67,913.69c-13.48,9.87-21.29,18.13-23.45,24.8-2.16,6.67-3.23,16.25-3.23,28.76,0,14.31.94,23.55,2.81,27.72,1.88,4.17,5.59,6.25,11.15,6.25s8.72-1.63,10.32-4.9c1.6-3.26,2.4-11.84,2.4-25.74v-56.89Z"/>
    </g>
  </g>
  <g class="st2">
    <text class="st1" transform="translate(313.82 -676.4)"><tspan x="0" y="0" xml:space="preserve">2 грн  / 5 грн </tspan></text>
    <text class="st1" transform="translate(499.2 -164.24)"><tspan x="0" y="0">інша сума</tspan></text>
  </g>
</svg>