<?xml version="1.0" encoding="UTF-8"?>
<svg id="_Шар_1" xmlns="http://www.w3.org/2000/svg" version="1.1" viewBox="40 85 2745 660">
  <!-- Generator: Adobe Illustrator 30.2.1, SVG Export Plug-In . SVG Version: 2.1.1 Build 1)  -->
  <defs>
    <style>
      .st0 {
        fill: #f6f6f4;
      }

      .st1 {
        font-family: Piepie, Piepie;
        font-size: 326.17px;
      }

      .st1, .st2 {
        fill: #7a7a79;
      }

      .st1, .st3 {
        isolation: isolate;
      }
    </style>
  </defs>
  <rect class="st0" y="0" width="2834.65" height="900.24"/>
  <g class="st3" transform="translate(-18 -4) scale(1)">
    <g class="st3">
      <path class="st2" d="M297.1,115.18l-3.59,84.15c-12.07-8.81-35.55-14.35-60.99-14.35-20.55,0-29.03,3.26-29.03,13.05,69.8,0,101.11,20.88,101.11,72.41,0,55.12-35.23,76.65-126.88,76.65-33.92,0-67.19-2.94-104.7-9.46l3.91-87.74c14.03,9.13,40.77,15,69.15,15,21.85,0,30.66-3.26,30.66-13.37-72.74,0-104.38-19.9-104.38-70.13,0-54.14,35.55-75.67,127.86-75.67,33.92,0,66.21,2.94,96.87,9.46Z"/>
      <path class="st2" d="M563.91,237.82c0,73.06-28.38,109.27-85.46,109.27-21.2,0-38.16-4.89-51.21-15h-.65v31.31h-108.94v-225.06h104.05l2.28,26.75h.65c13.37-22.51,33.92-33.27,61.97-33.27,51.54,0,77.3,36.21,77.3,106.01ZM426.59,215.32v48.27c2.61,1.96,5.87,2.94,9.79,2.94,10.11,0,13.7-7.18,13.7-27.07s-3.59-27.07-13.7-27.07c-3.91,0-7.18.98-9.79,2.94Z"/>
      <path class="st2" d="M801.69,211.4c0,10.44-1.3,24.79-2.94,30.01h-113.18c1.63,12.72,13.37,16.63,43.05,16.63,22.83,0,39.47-2.28,61.65-7.83l3.26,88.72c-24.14,5.22-51.21,8.15-81.54,8.15-99.81,0-140.91-31.96-140.91-108.94s37.51-106.33,121.99-106.33c74.37,0,108.62,25.12,108.62,79.59ZM684.59,215.97h27.4c-.33-20.88-3.26-26.75-13.7-26.75s-13.37,5.87-13.7,26.75Z"/>
      <path class="st2" d="M1008.8,139.97l-3.26,76.65c-10.11-7.83-30.33-13.05-53.49-13.05-20.55,0-28.05,2.94-28.05,10.44,61.65,0,91.98,19.9,91.98,61.32,0,53.49-29.68,71.76-114.49,71.76-26.09,0-56.43-2.61-91.65-8.15l3.26-79.91c12.07,8.48,35.88,14.03,60.99,14.03,20.55,0,29.36-2.61,29.36-11.09-63.6,0-94.92-18.92-94.92-58.38,0-53.49,29.68-71.76,114.49-71.76,27.72,0,56.43,2.61,85.78,8.15Z"/>
      <path class="st2" d="M1139.59,146.17c0,27.4-17.94,40.45-56.1,40.45s-56.1-13.05-56.1-40.45,17.94-40.45,56.1-40.45,56.1,13.05,56.1,40.45ZM1137.96,340.57h-108.94v-151.67c15.33,6.52,33.27,9.79,54.47,9.79s39.47-3.26,54.47-9.79v151.67Z"/>
      <path class="st2" d="M1380.96,233.26v62.62c0,19.57.98,31.31,3.26,44.69h-102.74l-4.24-18.27h-.65c-13.05,16.31-34.57,24.79-62.95,24.79-42.08,0-62.62-18.59-62.62-56.75s21.85-58.06,66.87-58.06c20.55,0,40.45,3.91,53.17,10.44h.65v-.65c0-16.63-14.68-24.14-47.29-24.14-26.09,0-50.88,4.89-64.58,13.05l-3.26-91c28.05-5.22,61.32-8.15,93.94-8.15,97.2,0,130.47,25.77,130.47,101.44ZM1249.84,285.12c0,12.72,3.26,16.63,12.39,16.63,3.91,0,6.85-.65,9.46-2.61v-28.05c-2.61-1.96-5.54-2.61-9.46-2.61-9.13,0-12.39,3.91-12.39,16.63Z"/>
      <path class="st2" d="M1508.49,340.57h-108.94V112.25h108.94v228.32Z"/>
      <path class="st2" d="M1739.09,289.03c-11.42,55.78-45.66,80.89-119.71,80.89-25.12,0-59.04-2.94-82.2-9.79l-3.26-84.8c19.57,8.15,39.79,11.74,61.97,11.74,25.77,0,36.53-4.89,42.73-15.98h-.65c-11.74,2.28-22.51,2.94-34.57,2.94-48.27,0-61.97-10.11-70.78-54.47l-15.66-81.22h114.16l6.85,91.33c.33,3.59,1.96,5.22,4.89,5.22,1.3,0,2.94-.33,4.57-.98l7.83-95.57h112.53l-28.7,150.69Z"/>
      <path class="st2" d="M1881.95,138.34h40.12v78.93h-40.12v20.22c0,9.46,3.91,13.05,16.31,13.05,7.5,0,15.33-1.3,23.81-4.57v94.59c-20.55,4.89-32.62,6.52-51.54,6.52-71.11,0-97.53-23.16-97.53-84.48V112.25h108.94v26.09Z"/>
      <path class="st2" d="M2149.08,289.03c-11.42,55.78-45.66,80.89-119.71,80.89-25.12,0-59.04-2.94-82.2-9.79l-3.26-84.8c19.57,8.15,39.79,11.74,61.97,11.74,25.77,0,36.53-4.89,42.73-15.98h-.65c-11.74,2.28-22.51,2.94-34.57,2.94-48.27,0-61.97-10.11-70.78-54.47l-15.66-81.22h114.16l6.85,91.33c.33,3.59,1.96,5.22,4.89,5.22,1.3,0,2.94-.33,4.57-.98l7.83-95.57h112.53l-28.7,150.69Z"/>
    </g>
    <g class="st3">
      <path class="st2" d="M195.34,699.35l-2.94,32.62h-125.25l42.08-228.32h206.47l42.08,228.32h-127.21l-2.94-32.62h-32.29ZM216.87,576.71h-10.76l-5.22,60.99h21.53l-5.54-60.99Z"/>
      <path class="st2" d="M526.73,524.85v99.81c-5.54-1.63-14.68-1.96-18.59-1.96-22.83,0-31.64,12.07-31.64,36.21v73.06h-109.59v-202.23h93.94l.98,36.21h.65c5.22-29.68,27.07-42.73,49.58-42.73,3.59,0,10.11.33,14.68,1.63Z"/>
      <path class="st2" d="M762.87,624.66v62.62c0,19.57.98,31.31,3.26,44.69h-102.74l-4.24-18.27h-.65c-13.05,16.31-34.57,24.79-62.95,24.79-42.08,0-62.62-18.59-62.62-56.75s21.85-58.06,66.87-58.06c20.55,0,40.45,3.91,53.17,10.44h.65v-.65c0-16.63-14.68-24.14-47.29-24.14-26.09,0-50.88,4.89-64.58,13.05l-3.26-91c28.05-5.22,61.32-8.15,93.94-8.15,97.2,0,130.47,25.77,130.47,101.44ZM631.75,676.52c0,12.72,3.26,16.63,12.39,16.63,3.91,0,6.85-.65,9.46-2.61v-28.05c-2.61-1.96-5.54-2.61-9.46-2.61-9.13,0-12.39,3.91-12.39,16.63Z"/>
      <path class="st2" d="M890.4,551.27h.65c14.03-18.92,33.92-28.05,59.69-28.05,50.88,0,76.98,36.21,76.98,104.38,0,74.37-31.31,110.9-94.92,110.9-26.09,0-43.71-6.2-61.65-22.18h-.65l-8.81,15.66h-80.24v-228.32h108.94v47.62ZM890.4,606.72v48.27c2.61,1.96,5.87,2.94,9.79,2.94,10.11,0,13.7-7.18,13.7-27.07s-3.59-27.07-13.7-27.07c-3.91,0-7.18.98-9.79,2.94Z"/>
      <path class="st2" d="M1151.99,537.57c0,27.4-17.94,40.45-56.1,40.45s-56.1-13.05-56.1-40.45,17.94-40.45,56.1-40.45,56.1,13.05,56.1,40.45ZM1150.36,731.97h-108.94v-151.67c15.33,6.52,33.27,9.79,54.47,9.79s39.47-3.26,54.47-9.79v151.67Z"/>
      <path class="st2" d="M1359.43,531.37l-3.26,92.96c-11.42-3.91-30.66-6.2-49.9-6.2-21.85,0-28.38,2.94-28.38,12.72s6.85,12.72,28.38,12.72c19.24,0,38.49-2.28,49.9-6.2l3.26,92.96c-25.12,5.87-44.03,8.15-68.17,8.15-89.7,0-127.21-31.64-127.21-107.64s37.51-107.64,127.21-107.64c24.14,0,43.05,2.28,68.17,8.15Z"/>
      <path class="st2" d="M1599.16,624.66v62.62c0,19.57.98,31.31,3.26,44.69h-102.74l-4.24-18.27h-.65c-13.05,16.31-34.57,24.79-62.95,24.79-42.08,0-62.62-18.59-62.62-56.75s21.85-58.06,66.87-58.06c20.55,0,40.45,3.91,53.17,10.44h.65v-.65c0-16.63-14.68-24.14-47.29-24.14-26.09,0-50.88,4.89-64.58,13.05l-3.26-91c28.05-5.22,61.32-8.15,93.94-8.15,97.2,0,130.47,25.77,130.47,101.44ZM1468.04,676.52c0,12.72,3.26,16.63,12.39,16.63,3.91,0,6.85-.65,9.46-2.61v-28.05c-2.61-1.96-5.54-2.61-9.46-2.61-9.13,0-12.39,3.91-12.39,16.63Z"/>
      <path class="st2" d="M1675.16,731.97v-82.2h39.47v-47.62h-39.47v-78.93c17.29-.98,31.64-3.26,48.93-19.57h99.48v146.12h27.07v82.2h-175.48Z"/>
      <path class="st2" d="M2111.57,617.81c0,85.46-36.86,120.68-126.55,120.68s-126.55-35.23-126.55-120.68,36.86-120.68,126.55-120.68,126.55,35.23,126.55,120.68ZM1972.29,617.81c0,32.94,2.28,40.12,12.72,40.12s12.72-7.18,12.72-40.12-2.28-40.12-12.72-40.12-12.72,7.18-12.72,40.12Z"/>
      <path class="st2" d="M2374.46,617.81c0,85.46-36.86,120.68-126.55,120.68s-126.55-35.23-126.55-120.68,36.86-120.68,126.55-120.68,126.55,35.23,126.55,120.68ZM2235.19,617.81c0,32.94,2.28,40.12,12.72,40.12s12.72-7.18,12.72-40.12-2.28-40.12-12.72-40.12-12.72,7.18-12.72,40.12Z"/>
      <path class="st2" d="M2552.55,577.69c0,56.75-24.46,80.24-84.15,80.24s-84.48-23.48-84.48-80.24,24.46-80.56,84.48-80.56,84.15,23.48,84.15,80.56ZM2458.29,577.69c0,23.16,1.96,28.7,10.11,28.7s9.79-5.54,9.79-28.7-1.96-29.03-9.79-29.03-10.11,5.54-10.11,29.03ZM2530.37,731.97h-37.84l129.16-228.32h37.84l-129.16,228.32ZM2767.5,658.25c0,56.75-24.46,80.24-84.15,80.24s-84.48-23.48-84.48-80.24,24.46-80.56,84.48-80.56,84.15,23.48,84.15,80.56ZM2673.23,658.25c0,23.16,1.96,28.7,10.11,28.7s9.79-5.54,9.79-28.7-1.96-29.03-9.79-29.03-10.11,5.54-10.11,29.03Z"/>
    </g>
  </g>
  <g class="st3">
    <text class="st1" transform="translate(79.46 -567.23)"><tspan x="0" y="0">Spesialyty </tspan></text>
    <text class="st1" transform="translate(79.46 -175.83)"><tspan x="0" y="0">Arabica 100%</tspan></text>
  </g>
</svg>
