<?xml version="1.0" encoding="UTF-8"?>
<svg id="_Шар_1" xmlns="http://www.w3.org/2000/svg" version="1.1" viewBox="0 0 2834.65 900.24">
  <!-- Generator: Adobe Illustrator 30.2.1, SVG Export Plug-In . SVG Version: 2.1.1 Build 1)  -->
  <defs>
    <style>
      .st0 {
        fill: #f6f6f4;
      }

      .st1, .st2 {
        isolation: isolate;
      }

      .st3, .st2 {
        fill: #5d5d5d;
      }

      .st2 {
        font-family: Arial-Black, 'Arial Black';
        font-size: 326.17px;
        font-weight: 800;
      }
    </style>
  </defs>
  <rect class="st0" y="0" width="2834.65" height="900.24"/>
  <g class="st1">
    <g class="st1">
      <path class="st3" d="M12.57,347.35l76.3-4.78c1.65,12.39,5.02,21.84,10.09,28.32,8.26,10.51,20.06,15.76,35.41,15.76,11.45,0,20.27-2.68,26.47-8.05,6.2-5.37,9.29-11.6,9.29-18.68s-2.95-12.75-8.85-18.06c-5.9-5.31-19.59-10.33-41.07-15.05-35.17-7.91-60.25-18.41-75.24-31.51-15.11-13.1-22.66-29.8-22.66-50.1,0-13.33,3.86-25.93,11.6-37.8,7.73-11.86,19.35-21.18,34.87-27.97,15.52-6.79,36.79-10.18,63.82-10.18,33.16,0,58.45,6.17,75.86,18.5,17.41,12.33,27.76,31.95,31.07,58.86l-75.59,4.43c-2.01-11.68-6.23-20.18-12.66-25.49-6.43-5.31-15.31-7.97-26.64-7.97-9.32,0-16.35,1.98-21.07,5.93-4.72,3.96-7.08,8.76-7.08,14.43,0,4.13,1.95,7.85,5.84,11.15,3.78,3.42,12.75,6.61,26.91,9.56,35.05,7.55,60.16,15.2,75.33,22.93,15.16,7.73,26.2,17.32,33.1,28.77,6.9,11.45,10.36,24.25,10.36,38.42,0,16.64-4.6,31.98-13.81,46.03-9.21,14.05-22.07,24.7-38.59,31.95-16.52,7.26-37.35,10.89-62.49,10.89-44.14,0-74.71-8.5-91.7-25.49s-26.62-38.59-28.86-64.79Z"/>
      <path class="st3" d="M283.95,504.73V245.21h67.45v27.79c9.32-11.68,17.88-19.59,25.67-23.72,10.5-5.55,22.13-8.32,34.87-8.32,25.14,0,44.58,9.62,58.33,28.86,13.75,19.24,20.62,43.02,20.62,71.34,0,31.28-7.5,55.14-22.48,71.61-14.99,16.46-33.93,24.7-56.83,24.7-11.09,0-21.22-1.89-30.36-5.66-9.15-3.78-17.32-9.38-24.52-16.82v89.75h-72.76ZM356.18,339.74c0,14.87,3.13,25.91,9.38,33.1,6.25,7.2,14.16,10.8,23.72,10.8,8.38,0,15.4-3.45,21.07-10.36,5.67-6.9,8.5-18.62,8.5-35.14,0-15.22-2.95-26.4-8.85-33.55-5.9-7.14-13.1-10.71-21.6-10.71-9.21,0-16.88,3.6-23.01,10.8-6.14,7.2-9.21,18.88-9.21,35.05Z"/>
      <path class="st3" d="M734.14,357.09h-144.46c1.3,11.57,4.43,20.18,9.38,25.85,6.96,8.14,16.05,12.21,27.26,12.21,7.08,0,13.81-1.77,20.18-5.31,3.9-2.24,8.08-6.2,12.57-11.86l70.99,6.55c-10.86,18.88-23.96,32.43-39.3,40.63-15.34,8.2-37.35,12.3-66.03,12.3-24.9,0-44.5-3.51-58.77-10.53-14.28-7.02-26.11-18.17-35.49-33.46-9.38-15.28-14.07-33.25-14.07-53.91,0-29.39,9.41-53.17,28.24-71.34,18.82-18.17,44.82-27.26,77.98-27.26,26.91,0,48.15,4.07,63.73,12.21,15.58,8.14,27.44,19.95,35.58,35.41,8.14,15.46,12.21,35.58,12.21,60.37v8.14ZM660.85,322.57c-1.42-13.92-5.16-23.9-11.24-29.92-6.08-6.02-14.07-9.03-23.99-9.03-11.45,0-20.6,4.54-27.44,13.63-4.37,5.67-7.14,14.1-8.32,25.32h70.99Z"/>
      <path class="st3" d="M754.5,380.99l71.52-6.73c2.95,8.5,7.08,14.58,12.39,18.23,5.31,3.66,12.39,5.49,21.24,5.49,9.68,0,17.17-2.06,22.48-6.19,4.13-3.06,6.2-6.89,6.2-11.49,0-5.18-2.72-9.19-8.14-12.02-3.89-2-14.22-4.48-30.98-7.42-25.02-4.36-42.4-8.4-52.13-12.11-9.74-3.71-17.94-9.99-24.61-18.83-6.67-8.84-10-18.92-10-30.24,0-12.38,3.6-23.05,10.8-32.01,7.2-8.96,17.11-15.65,29.74-20.07,12.63-4.42,29.56-6.63,50.81-6.63,22.42,0,38.97,1.71,49.66,5.13,10.68,3.42,19.59,8.74,26.73,15.93,7.14,7.2,13.07,16.94,17.79,29.21l-68.33,6.73c-1.77-6.02-4.72-10.44-8.85-13.28-5.66-3.78-12.51-5.67-20.54-5.67s-14.07,1.44-17.79,4.33c-3.72,2.89-5.58,6.39-5.58,10.52,0,4.6,2.36,8.07,7.08,10.43,4.72,2.36,14.99,4.48,30.8,6.36,23.96,2.71,41.78,6.48,53.46,11.32s20.62,11.73,26.82,20.69c6.2,8.96,9.29,18.81,9.29,29.53s-3.27,21.4-9.83,31.66c-6.55,10.26-16.88,18.42-30.98,24.49-14.1,6.07-33.31,9.11-57.62,9.11-34.34,0-58.8-4.9-73.38-14.69-14.58-9.79-23.93-23.72-28.06-41.78Z"/>
      <path class="st3" d="M991.36,173.69h72.05v49.04h-72.05v-49.04ZM991.36,245.21h72.05v188h-72.05v-188Z"/>
      <path class="st3" d="M1175.12,306.11l-68.86-7.26c2.59-12.04,6.34-21.51,11.24-28.41,4.9-6.9,11.95-12.89,21.16-17.97,6.61-3.66,15.69-6.49,27.26-8.5,11.56-2.01,24.08-3.01,37.53-3.01,21.6,0,38.95,1.21,52.05,3.63,13.1,2.42,24.01,7.47,32.75,15.14,6.14,5.31,10.98,12.83,14.52,22.57,3.54,9.74,5.31,19.03,5.31,27.88v83.03c0,8.85.56,15.79,1.68,20.8,1.12,5.02,3.57,11.42,7.35,19.21h-67.62c-2.72-4.84-4.49-8.52-5.31-11.06-.83-2.54-1.65-6.52-2.48-11.95-9.44,9.09-18.83,15.58-28.15,19.47-12.75,5.19-27.56,7.79-44.43,7.79-22.42,0-39.45-5.19-51.07-15.58-11.63-10.38-17.44-23.19-17.44-38.42,0-14.28,4.19-26.02,12.57-35.23,8.38-9.21,23.84-16.05,46.38-20.54,27.02-5.43,44.55-9.23,52.58-11.42,8.02-2.18,16.52-5.05,25.49-8.59,0-8.85-1.83-15.05-5.49-18.59-3.66-3.54-10.09-5.31-19.3-5.31-11.8,0-20.65,1.89-26.55,5.67-4.6,2.95-8.32,8.5-11.15,16.64ZM1237.61,343.99c-9.91,3.54-20.24,6.67-30.98,9.38-14.64,3.89-23.9,7.73-27.79,11.51-4.01,3.89-6.02,8.32-6.02,13.28,0,5.66,1.97,10.3,5.93,13.9,3.95,3.6,9.76,5.4,17.44,5.4s15.49-1.95,22.39-5.84,11.8-8.64,14.69-14.25c2.89-5.6,4.34-12.89,4.34-21.86v-11.51Z"/>
      <path class="st3" d="M1353.74,173.69h72.23v259.52h-72.23V173.69Z"/>
      <path class="st3" d="M1457.48,245.21h76.03l38.78,125.16,36.01-125.16h71l-74.59,200.88c-8.49,22.91-17.17,38.38-26.01,46.42-12.51,11.34-31.56,17.01-57.16,17.01-10.38,0-26.43-1.42-48.13-4.25l-5.66-50.28c10.38,3.3,21.93,4.96,34.67,4.96,8.49,0,15.36-1.95,20.6-5.85,5.25-3.9,9.7-10.87,13.35-20.92l-78.89-187.97Z"/>
      <path class="st3" d="M1786.57,173.69v71.52h39.65v52.75h-39.65v66.61c0,8.01.77,13.31,2.3,15.9,2.36,4.01,6.49,6.01,12.39,6.01,5.31,0,12.75-1.53,22.31-4.59l5.31,49.74c-17.82,3.89-34.46,5.84-49.92,5.84-17.94,0-31.16-2.3-39.65-6.9s-14.78-11.58-18.85-20.95c-4.07-9.37-6.11-24.55-6.11-45.53v-66.13h-26.55v-52.75h26.55v-34.52l72.23-37Z"/>
      <path class="st3" d="M1839.86,245.21h76.03l38.78,125.16,36.01-125.16h71l-74.59,200.88c-8.49,22.91-17.17,38.38-26.01,46.42-12.51,11.34-31.56,17.01-57.16,17.01-10.38,0-26.43-1.42-48.13-4.25l-5.66-50.28c10.38,3.3,21.93,4.96,34.67,4.96,8.49,0,15.36-1.95,20.6-5.85,5.25-3.9,9.7-10.87,13.35-20.92l-78.89-187.97Z"/>
    </g>
    <g class="st1">
      <path class="st3" d="M186.11,825.44h-91.05l-12.65,42.84H.53l97.54-259.52h87.47l97.52,259.52h-83.98l-12.98-42.84ZM169.47,769.32l-28.65-93.29-28.35,93.29h56.99Z"/>
      <path class="st3" d="M304.49,680.27h67.45v30.8c6.49-13.33,13.19-22.51,20.09-27.53,6.9-5.01,15.43-7.52,25.58-7.52s22.24,3.31,34.87,9.91l-22.31,51.34c-8.5-3.54-15.22-5.31-20.18-5.31-9.44,0-16.76,3.89-21.95,11.68-7.44,10.98-11.15,31.51-11.15,61.61v63.02h-72.4v-188Z"/>
      <path class="st3" d="M536.57,741.17l-68.86-7.26c2.59-12.04,6.34-21.51,11.24-28.41,4.9-6.9,11.95-12.89,21.16-17.97,6.61-3.66,15.69-6.49,27.26-8.5,11.56-2.01,24.08-3.01,37.53-3.01,21.6,0,38.95,1.21,52.05,3.63,13.1,2.42,24.01,7.47,32.75,15.14,6.14,5.31,10.98,12.83,14.52,22.57,3.54,9.74,5.31,19.03,5.31,27.88v83.03c0,8.85.56,15.79,1.68,20.8,1.12,5.02,3.57,11.42,7.35,19.21h-67.62c-2.72-4.84-4.49-8.53-5.31-11.06-.83-2.54-1.65-6.52-2.48-11.95-9.44,9.09-18.83,15.58-28.15,19.47-12.75,5.19-27.56,7.79-44.43,7.79-22.42,0-39.45-5.19-51.07-15.58-11.63-10.38-17.44-23.19-17.44-38.42,0-14.28,4.19-26.02,12.57-35.23,8.38-9.21,23.84-16.05,46.38-20.54,27.02-5.43,44.55-9.23,52.58-11.42,8.02-2.18,16.52-5.04,25.49-8.59,0-8.85-1.83-15.05-5.49-18.59-3.66-3.54-10.09-5.31-19.3-5.31-11.8,0-20.65,1.89-26.55,5.67-4.6,2.95-8.32,8.5-11.15,16.64ZM599.06,779.05c-9.91,3.54-20.24,6.67-30.98,9.38-14.64,3.89-23.9,7.73-27.79,11.51-4.01,3.89-6.02,8.32-6.02,13.28,0,5.67,1.97,10.3,5.93,13.9,3.95,3.6,9.76,5.4,17.44,5.4s15.49-1.95,22.39-5.84,11.8-8.64,14.69-14.25c2.89-5.6,4.34-12.89,4.34-21.86v-11.51Z"/>
      <path class="st3" d="M716.61,608.75h72.76v89.93c7.2-7.55,15.37-13.22,24.52-16.99,9.14-3.78,19.27-5.67,30.36-5.67,22.9,0,41.84,8.23,56.83,24.7,14.99,16.46,22.48,40.1,22.48,70.9,0,20.54-3.42,38.62-10.27,54.26-6.85,15.64-16.32,27.32-28.41,35.05-12.1,7.73-25.52,11.6-40.27,11.6-12.63,0-24.19-2.72-34.7-8.14-7.91-4.25-16.52-12.21-25.85-23.9v27.79h-67.45v-259.52ZM788.84,773.74c0,16.17,3.04,27.88,9.12,35.14,6.08,7.26,13.78,10.89,23.1,10.89,8.61,0,15.84-3.57,21.69-10.71,5.84-7.14,8.76-19.15,8.76-36.03,0-14.87-2.86-25.79-8.59-32.75-5.73-6.96-12.66-10.45-20.8-10.45-9.8,0-17.79,3.63-23.99,10.89-6.2,7.26-9.29,18.26-9.29,33.02Z"/>
      <path class="st3" d="M960.73,608.75h72.05v49.04h-72.05v-49.04ZM960.73,680.27h72.05v188h-72.05v-188Z"/>
      <path class="st3" d="M1219.02,794.63l68.51,7.79c-3.78,14.28-9.97,26.64-18.59,37.09-8.62,10.45-19.62,18.56-33.02,24.34-13.4,5.78-30.42,8.67-51.07,8.67s-36.56-1.86-49.83-5.57c-13.28-3.71-24.7-9.73-34.25-18.04-9.56-8.31-17.06-18.07-22.48-29.27-5.43-11.2-8.14-26.06-8.14-44.57s3.3-35.43,9.91-48.29c4.84-9.43,11.45-17.89,19.83-25.38,8.38-7.49,16.99-13.06,25.85-16.72,14.04-5.78,32.04-8.67,53.99-8.67,30.68,0,54.08,5.49,70.19,16.46s27.41,27.03,33.9,48.15l-67.8,9.03c-2.12-8.02-5.99-14.07-11.6-18.15-5.61-4.07-13.13-6.11-22.57-6.11-11.92,0-21.57,4.27-28.94,12.81-7.38,8.54-11.06,21.47-11.06,38.79,0,15.43,3.66,27.15,10.98,35.17,7.32,8.01,16.64,12.02,27.97,12.02,9.44,0,17.38-2.42,23.81-7.26,6.43-4.84,11.24-12.27,14.43-22.31Z"/>
      <path class="st3" d="M1386.31,741.17l-68.86-7.26c2.59-12.04,6.34-21.51,11.24-28.41,4.9-6.9,11.95-12.89,21.16-17.97,6.61-3.66,15.69-6.49,27.26-8.5,11.56-2.01,24.08-3.01,37.53-3.01,21.6,0,38.95,1.21,52.05,3.63,13.1,2.42,24.01,7.47,32.75,15.14,6.13,5.31,10.98,12.83,14.52,22.57,3.54,9.74,5.31,19.03,5.31,27.88v83.03c0,8.85.56,15.79,1.68,20.8,1.12,5.02,3.57,11.42,7.35,19.21h-67.62c-2.72-4.84-4.49-8.53-5.31-11.06-.83-2.54-1.65-6.52-2.48-11.95-9.44,9.09-18.83,15.58-28.15,19.47-12.75,5.19-27.56,7.79-44.43,7.79-22.42,0-39.45-5.19-51.07-15.58-11.63-10.38-17.44-23.19-17.44-38.42,0-14.28,4.19-26.02,12.57-35.23,8.38-9.21,23.84-16.05,46.38-20.54,27.02-5.43,44.55-9.23,52.58-11.42,8.02-2.18,16.52-5.04,25.49-8.59,0-8.85-1.83-15.05-5.49-18.59-3.66-3.54-10.09-5.31-19.3-5.31-11.8,0-20.65,1.89-26.55,5.67-4.6,2.95-8.32,8.5-11.15,16.64ZM1448.8,779.05c-9.91,3.54-20.24,6.67-30.98,9.38-14.63,3.89-23.9,7.73-27.79,11.51-4.01,3.89-6.02,8.32-6.02,13.28,0,5.67,1.98,10.3,5.93,13.9,3.95,3.6,9.76,5.4,17.44,5.4s15.49-1.95,22.39-5.84c6.9-3.89,11.8-8.64,14.69-14.25,2.89-5.6,4.34-12.89,4.34-21.86v-11.51Z"/>
      <path class="st3" d="M1839.86,604.33v263.95h-72.94v-172.96c-11.8,8.97-23.22,16.23-34.25,21.77-11.04,5.55-24.87,10.86-41.51,15.93v-59.13c24.55-7.91,43.61-17.41,57.18-28.5,13.57-11.09,24.19-24.78,31.87-41.07h59.66Z"/>
      <path class="st3" d="M1918.28,737.45c0-49.33,8.88-83.85,26.64-103.56,17.76-19.71,44.82-29.56,81.17-29.56,17.46,0,31.8,2.15,43.02,6.46,11.21,4.31,20.36,9.91,27.44,16.82,7.08,6.9,12.66,14.16,16.73,21.77s7.35,16.49,9.83,26.64c4.84,19.36,7.26,39.54,7.26,60.54,0,47.09-7.97,81.55-23.9,103.38-15.93,21.83-43.37,32.75-82.32,32.75-21.83,0-39.48-3.48-52.93-10.44-13.45-6.96-24.49-17.17-33.1-30.63-6.26-9.56-11.12-22.63-14.6-39.21-3.48-16.58-5.22-34.9-5.22-54.97ZM1989.8,737.63c0,33.05,2.92,55.62,8.76,67.71,5.84,12.1,14.31,18.15,25.4,18.15,7.32,0,13.66-2.57,19.03-7.7,5.37-5.13,9.32-13.25,11.86-24.34,2.54-11.09,3.81-28.38,3.81-51.87,0-34.46-2.92-57.62-8.76-69.48-5.84-11.86-14.6-17.79-26.29-17.79s-20.54,6.05-25.85,18.15c-5.31,12.1-7.97,34.49-7.97,67.18Z"/>
      <path class="st3" d="M2160.1,737.45c0-49.33,8.88-83.85,26.64-103.56,17.76-19.71,44.82-29.56,81.17-29.56,17.46,0,31.8,2.15,43.02,6.46,11.21,4.31,20.36,9.91,27.44,16.82,7.08,6.9,12.66,14.16,16.73,21.77s7.35,16.49,9.83,26.64c4.84,19.36,7.26,39.54,7.26,60.54,0,47.09-7.97,81.55-23.9,103.38-15.93,21.83-43.37,32.75-82.32,32.75-21.83,0-39.48-3.48-52.93-10.44-13.45-6.96-24.49-17.17-33.1-30.63-6.26-9.56-11.12-22.63-14.6-39.21-3.48-16.58-5.22-34.9-5.22-54.97ZM2231.62,737.63c0,33.05,2.92,55.62,8.76,67.71,5.84,12.1,14.31,18.15,25.4,18.15,7.32,0,13.66-2.57,19.03-7.7,5.37-5.13,9.32-13.25,11.86-24.34,2.54-11.09,3.81-28.38,3.81-51.87,0-34.46-2.92-57.62-8.76-69.48-5.84-11.86-14.6-17.79-26.29-17.79s-20.54,6.05-25.85,18.15c-5.31,12.1-7.97,34.49-7.97,67.18Z"/>
      <path class="st3" d="M2404.58,672.48c0-12.04,2.62-23.48,7.88-34.34,5.25-10.86,13.28-19.21,24.08-25.05s23.57-8.76,38.33-8.76c21.71,0,38.83,6.2,51.34,18.59,12.51,12.39,18.76,28.92,18.76,49.57s-6.26,37.35-18.76,49.75c-12.51,12.39-29.62,18.59-51.34,18.59-14.75,0-27.53-2.92-38.33-8.76s-18.83-14.19-24.08-25.05c-5.25-10.86-7.88-22.36-7.88-34.52ZM2454.32,672.84c0,14.63,2.36,25.26,7.08,31.87,3.07,4.37,7.55,6.55,13.45,6.55s10.33-2.18,13.28-6.55c4.72-6.61,7.08-17.23,7.08-31.87s-2.36-25.14-7.08-31.87c-2.95-4.25-7.38-6.37-13.28-6.37s-10.39,2.12-13.45,6.37c-4.72,6.61-7.08,17.23-7.08,31.87ZM2624.92,604.33h37.41l-149.93,277.23h-37.01l149.53-277.23ZM2591.7,812.87c0-12.15,2.59-23.63,7.79-34.43,5.19-10.8,13.22-19.15,24.08-25.05,10.86-5.9,23.6-8.85,38.24-8.85,21.83,0,39,6.23,51.52,18.68,12.51,12.45,18.76,29,18.76,49.66s-6.26,37.21-18.76,49.66c-12.51,12.45-29.68,18.68-51.52,18.68-14.63,0-27.38-2.95-38.24-8.85-10.86-5.9-18.88-14.25-24.08-25.05-5.2-10.8-7.79-22.28-7.79-34.43ZM2641.44,813.22c0,14.63,2.36,25.26,7.08,31.87,2.95,4.25,7.38,6.37,13.28,6.37s10.38-2.12,13.45-6.37c4.72-6.61,7.08-17.23,7.08-31.87s-2.36-25.32-7.08-32.04c-3.07-4.25-7.55-6.37-13.45-6.37s-10.33,2.18-13.28,6.55c-4.72,6.61-7.08,17.23-7.08,31.87Z"/>
    </g>
  </g>
  <g class="st1">
    <text class="st2" transform="translate(96.37 -611.18)"><tspan x="0" y="0">Spesialyty </tspan></text>
    <text class="st2" transform="translate(96.37 -219.78)"><tspan x="0" y="0">Arabica 100%</tspan></text>
  </g>
</svg>